<?xml version="1.0" encoding="utf-8"?>
<!-- Generator: Adobe Illustrator 20.0.0, SVG Export Plug-In . SVG Version: 6.00 Build 0)  -->
<svg version="1.1" id="Layer_1" xmlns="http://www.w3.org/2000/svg" xmlns:xlink="http://www.w3.org/1999/xlink" x="0px" y="0px"
	 viewBox="0 0 250 175" style="enable-background:new 0 0 250 175;" xml:space="preserve">
<style type="text/css">
	.st0{fill:#FFFFFF;}
	.st1{font-family:'STSongti-SC-Regular';}
	.st2{font-size:25.1667px;}
	.st3{fill:none;stroke:#FFFFFF;stroke-miterlimit:10;}
	.st4{clip-path:url(#SVGID_2_);}
	.st5{clip-path:url(#SVGID_4_);fill:#A71F24;}
	.st6{clip-path:url(#SVGID_4_);fill:#FFFFFF;}
	.st7{clip-path:url(#SVGID_4_);}
	.st8{clip-path:url(#SVGID_6_);fill:#A71F24;}
	.st9{clip-path:url(#SVGID_6_);fill:none;stroke:#FFFFFF;stroke-miterlimit:10;}
	.st10{clip-path:url(#SVGID_6_);fill:#FFFFFF;}
	.st11{clip-path:url(#SVGID_6_);}
</style>


<g>
	<defs>
		<rect id="SVGID_1_" x="-505" y="-252.5" width="1400" height="680"/>
	</defs>
	<clipPath id="SVGID_2_">
		<use xlink:href="#SVGID_1_"  style="overflow:visible;"/>
	</clipPath>
	<g class="st4">
		<g>
			<defs>
				<rect id="SVGID_3_" x="-199.4" y="-102.5" width="834.2" height="405.2"/>
			</defs>
			<clipPath id="SVGID_4_">
				<use xlink:href="#SVGID_3_"  style="overflow:visible;"/>
			</clipPath>
			<rect x="65.1" y="23.2" class="st5" width="119.2" height="119.2"/>
			<rect x="74.6" y="32.1" class="st6" width="101.3" height="101.3"/>
			<g class="st7">
				<defs>
					<rect id="SVGID_5_" x="-199.4" y="-102.5" width="834.2" height="405.2"/>
				</defs>
				<clipPath id="SVGID_6_">
					<use xlink:href="#SVGID_5_"  style="overflow:visible;"/>
				</clipPath>
				<path class="st8" d="M93,100.7h-1c0.3,0.6,0.7,1.2,1,1.8V100.7z"/>
				<path class="st9" d="M93,100.7h-1c0.3,0.6,0.7,1.2,1,1.8V100.7z"/>
				<rect x="104.5" y="96.6" class="st10" width="5.5" height="3.6"/>
				<path class="st8" d="M147.3,54.4v-1.3c-1.5-1-3-1.9-4.7-2.7v3.9H147.3z"/>
				<path class="st9" d="M147.3,54.4v-1.3c-1.5-1-3-1.9-4.7-2.7v3.9H147.3z"/>
				<rect x="104.5" y="105.1" class="st8" width="5.5" height="3.7"/>
				<rect x="104.5" y="105.1" class="st9" width="5.5" height="3.7"/>
				<path class="st8" d="M149.8,55h-0.4v7.2h4.8V59C152.8,57.6,151.4,56.2,149.8,55"/>
				<path class="st9" d="M149.8,55h-0.4v7.2h4.8V59C152.8,57.6,151.4,56.2,149.8,55z"/>
				<rect x="144" y="103.5" class="st8" width="3.7" height="3.3"/>
				<rect x="144" y="103.5" class="st9" width="3.7" height="3.3"/>
				<rect x="97.6" y="100.7" class="st8" width="1.9" height="2.6"/>
				<rect x="97.6" y="100.7" class="st9" width="1.9" height="2.6"/>
				<path class="st8" d="M149.3,110.3c1,0.4,1.6,1,1.8,1.6c1.4-1.2,2.8-2.6,4-4c-0.3-0.3-0.7-0.7-1-1.1
					C152.8,108.2,151.1,109.4,149.3,110.3"/>
				<path class="st9" d="M149.3,110.3c1,0.4,1.6,1,1.8,1.6c1.4-1.2,2.8-2.6,4-4c-0.3-0.3-0.7-0.7-1-1.1
					C152.8,108.2,151.1,109.4,149.3,110.3z"/>
				<path class="st11" d="M103.1,50.6l-0.3,0.2c0.2,0.3,0.4,0.6,0.6,0.9c0.2-0.2,0.5-0.3,0.7-0.5C103.9,51,103.5,50.8,103.1,50.6"/>
				<path class="st11" d="M110.4,46.8c-3,1.2-8.7,2.7-13.4,3.4l0.1,0.4c3-0.1,6.2-0.4,9.1-0.8c1.5-0.9,3.1-1.7,4.8-2.4L110.4,46.8z"
					/>
				<path class="st11" d="M98.5,51.3l-0.2,0.2c0.7,0.9,1.3,2.3,1.3,3.5c0.6-0.5,1.1-1,1.7-1.5C100.8,52.7,100,52,98.5,51.3"/>
				<path class="st11" d="M93.6,51.1c0.3,0.2,0.6,0.3,0.8,0.3c0.6,0,1.1-0.6,1.1-1.3c0-1.1-1.1-2.4-4.5-2.8l-0.1,0.2
					C92,48.4,93.2,49.8,93.6,51.1"/>
				<path class="st11" d="M97.8,52.3l-0.5-0.1c-4.7,10.3-5,10.9-5.2,11.3C91.8,64,91.7,64,91.3,64v0c0,0-0.3,0-1.2,0v0.6
					c0.8,0.1,1.4,0.2,1.6,0.9c0.9-1.8,2-3.6,3.2-5.2C95.8,57.8,97,54.4,97.8,52.3"/>
				<path class="st11" d="M92.2,57.6c0.3,0.2,0.6,0.3,0.8,0.3c0.6,0,1.1-0.6,1.1-1.2c0-1-1.1-2.3-4.3-2.6l-0.1,0.3
					C90.8,55.1,91.9,56.4,92.2,57.6"/>
				<path class="st11" d="M99.5,55.5c0.3,0.3,0.6,0.5,0.9,0.5c0.6,0,1.2-0.6,1.2-1.4c0-0.3-0.1-0.7-0.3-1.1c-0.6,0.5-1.2,1-1.7,1.5
					c0,0,0,0.1,0,0.1C99.5,55.2,99.5,55.4,99.5,55.5"/>
				<path class="st11" d="M112.2,49.2c0.2,0,0.4-0.1,0.6-0.2l-1.7-1.6c-1.7,0.7-3.3,1.5-4.8,2.4c1.9-0.3,3.6-0.6,5-0.9
					C111.6,49.1,111.9,49.2,112.2,49.2"/>
				<path class="st11" d="M104.3,55c0.3,0.3,0.6,0.5,0.9,0.5c0.6,0,1.1-0.6,1.1-1.4c0-0.8-0.6-1.9-2.2-2.9c-0.2,0.2-0.5,0.3-0.7,0.5
					C104,52.7,104.4,54,104.3,55"/>
				<path class="st11" d="M91.8,70.2c0.1,0.9,0.5,1.3,1,1.3c0.6,0,1.7-0.2,1.7-2.2c0-2-0.7-3.1-0.8-4.3c0-0.7,0.2-1.5,0.4-2.3
					c0.1-0.4,0.4-1.3,0.8-2.5c-1.2,1.6-2.3,3.4-3.2,5.2c0.2,0.4,0.3,1,0.3,2C92,68.2,92,69.2,91.8,70.2"/>
				<path class="st11" d="M112.9,51.6c0.5,0.1,0.7-0.1,0.8-0.3l-2.8-1.2c-0.6,1.4-2,4.2-3.1,6l0.3,0.2
					C109.8,54.9,111.9,52.8,112.9,51.6"/>
				<path class="st11" d="M110.8,63.1h-4.3V61c0.8-0.1,1-0.2,1-0.6c1.8-0.7,3.9-1.7,5.3-2.4c0.6,0,0.9-0.1,1.1-0.3l-2.3-2.2
					l-1.4,1.3h-12l0.2,0.6h11.5c-0.9,0.8-2.1,2-3.3,2.8l-2.2-0.2v2.9h-8.2l0.2,0.6h8v4.8c0,0.4-0.1,0.5-0.6,0.5h-3.6v0.4
					c2.2,0.2,3,0.5,3,2.2c2.8-0.3,3.2-1.4,3.2-3.1v-4.8h6.9c0.7,0,1-0.1,1.2-0.5l-2.5-1.8L110.8,63.1z"/>
				<path class="st11" d="M154.2,55v4c0.7,0.8,1.5,1.6,2.1,2.5V55h3.7c0.7,0,1.1-0.2,1.3-0.5l-2.5-1.9l-1.4,1.8h-1v-5.7
					c0.8-0.1,1.1-0.3,1.1-0.7l-3.2-0.3v6.6h-4.8v-6.1c0.8-0.1,1.1-0.3,1.1-0.7l-3.2-0.3v5.7c0.9,0.6,1.7,1.2,2.6,1.9H154.2z"/>
				<path class="st11" d="M142.6,48.9c0.8-0.1,1.1-0.3,1.1-0.7l-3.2-0.3v1.7c0.7,0.3,1.4,0.6,2.1,0.9V48.9z"/>
				<path class="st11" d="M136.4,54.4l0.2,0.6h4v16.8c1.8,0,2.1-0.8,2.1-0.8v-1.7H159c0.7,0,1.1-0.1,1.3-0.5l-2.7-2l-1.5,1.9h-13.4
					V55h4.7v10.3c1.8,0,2.1-0.6,2.1-0.7v-1.9h4.8v2.1h0.4c0.8,0,1.7-0.4,1.7-0.7v-2.6c-0.7-0.9-1.4-1.7-2.1-2.5v3.2h-4.8V55h0.4
					c-0.8-0.7-1.7-1.3-2.6-1.9v1.3h-4.7v-3.9c-0.7-0.3-1.4-0.6-2.1-0.9v4.9H136.4z"/>
				<path class="st11" d="M97.9,110.4h-1.1v-2.1h0.5c-0.2-0.2-0.3-0.4-0.5-0.6h-0.7c0.1-0.1,0.2-0.2,0.4-0.4c-0.3-0.4-0.6-0.8-1-1.2
					c-0.1,0.5-0.2,1.1-0.2,1.6h-2.5l-0.3-0.1c0.2-0.5,0.5-1,0.7-1.5c0.6,0,0.8-0.1,0.9-0.4l-2.6-0.9c-0.7,2.9-2,5.7-3.2,7.3l0.4,0.3
					c0.6-0.5,1.2-1.1,1.8-1.8v8h0.3c0.9,0,1.6-0.5,1.6-0.6v-1.4h8.1c0.7,0,1-0.1,1.2-0.5l-2.1-1.5l-1.1,1.4h-1.7v-2.2h2.7
					c0.7,0,1-0.1,1.2-0.5l-1.9-1.3l-0.9,1.2h-1.1V111h2.7c0.2,0,0.3,0,0.4,0c-0.5-0.4-1-0.9-1.4-1.4L97.9,110.4z M94.9,116h-2.4
					v-2.2h2.4V116z M94.9,113.2h-2.4V111h2.4V113.2z M94.9,110.4h-2.4v-2.1h2.4V110.4z"/>
				<path class="st11" d="M93,103.3h-1.8v-2.6H92c-0.1-0.2-0.2-0.4-0.3-0.6h-0.2l-1.9-0.8v5.9h0.2c0.8,0,1.4-0.4,1.4-0.6v-0.8H93v1
					h0.2c0.3,0,0.8-0.2,1.1-0.3c-0.5-0.7-0.9-1.4-1.3-2.1V103.3z"/>
				<path class="st11" d="M99.9,118.2l0.3,0.5c2.3-0.9,3.7-2.2,4.7-3.8c-0.5-0.3-0.9-0.6-1.4-0.9
					C102.8,115.6,101.7,117.1,99.9,118.2"/>
				<path class="st11" d="M88.7,96.7l0.1,0.6h1.6c-0.1-0.2-0.2-0.4-0.2-0.6H88.7z"/>
				<path class="st11" d="M109.8,118.2h1.2c-1.1-0.5-2.2-1-3.2-1.6C107.9,117.9,108.3,118.2,109.8,118.2"/>
				<path class="st11" d="M97.6,106.1c0.6,0,0.9-0.1,0.9-0.4l-2.9-0.7c0,0.3-0.1,0.7-0.1,1.1c0.3,0.4,0.6,0.8,1,1.2
					C96.9,106.9,97.3,106.5,97.6,106.1"/>
				<path class="st11" d="M99.2,100.1h-1.3l-1.9-0.8v5.6h0.3c0.8,0,1.4-0.4,1.4-0.6v-0.5h1.9v0.9h0.3c0.5,0,1.4-0.4,1.4-0.5v-3.2
					c0.4-0.1,0.8-0.3,0.9-0.4l-2.1-1.4L99.2,100.1z M99.4,103.3h-1.9v-2.6h1.9V103.3z"/>
				<path class="st11" d="M100.7,110.5l-1.9-1.3l-0.3,0.4c0.5,0.5,0.9,0.9,1.4,1.4C100.3,110.9,100.5,110.8,100.7,110.5"/>
				<path class="st11" d="M91.8,99.1c1.4,0,1.9-0.3,1.9-0.5v-1.4h2.9V99h0.3c1.1,0,1.5-0.4,1.5-0.5v-1.3h2.9c0.6,0,0.9-0.2,1.1-0.5
					l-1.9-1.4l-0.9,1.3h-1.1v-1.7c0.7-0.1,0.9-0.3,0.9-0.6l-2.8-0.2v2.5h-2.9V95c0.7-0.1,0.8-0.3,0.9-0.6l-2.8-0.2v2.5h-1.6
					c0.1,0.2,0.2,0.4,0.2,0.6h1.4V99.1z"/>
				<path class="st11" d="M94.6,104.3V101c0.4-0.1,0.8-0.3,0.9-0.4l-2-1.4l-0.7,0.9h-1.1c0.1,0.2,0.2,0.4,0.3,0.6h1v1.8
					c0.4,0.7,0.9,1.4,1.3,2.1C94.5,104.5,94.6,104.4,94.6,104.3"/>
				<path class="st11" d="M113.3,117c0-0.3-0.1-0.4-0.8-0.7l0-3.3h-0.2c-0.2,1.3-0.6,2.7-0.8,3c-0.2,0.3-0.3,0.3-0.4,0.3H110
					c-0.3,0-0.3-0.1-0.3-0.7v-6.3h0.3v1.1h0.3c0.9,0,1.7-0.5,1.7-0.6V97.1c0.6-0.1,0.9-0.2,1.1-0.4l-2.4-1.8l-0.9,1.2h-5l-2.2-0.9
					v15.6c0.6,0,1.1,0,1.6-0.3c-0.1,1.2-0.3,2.4-0.7,3.5c0.4,0.3,0.9,0.6,1.4,0.9c0.6-1.1,1-2.3,1.2-3.5c0.7,0,0.9-0.1,1-0.5
					l-2.9-0.5c0.2-0.1,0.3-0.2,0.3-0.3v-0.6h3.3v6.2c0,0.4,0,0.7,0,0.9c1,0.6,2.1,1.1,3.2,1.6h0.3
					C112.7,118.2,113.3,117.8,113.3,117 M104.5,96.6h5.5v3.6h-5.5V96.6z M104.5,100.9h5.5v3.7h-5.5V100.9z M104.5,105.1h5.5v3.7
					h-5.5V105.1z"/>
				<path class="st11" d="M100.3,108.3c0.7,0,1-0.1,1.2-0.5l-2-1.4l-1,1.3h-1.7c0.2,0.2,0.3,0.4,0.5,0.6H100.3z"/>
				<path class="st11" d="M160.9,105.3l-0.2-0.1c-0.3,0.8-1.1,2.9-1.5,2.9c-0.1,0-1.3-0.6-2.7-2c-0.4,0.5-0.9,1.1-1.3,1.6
					c1.7,1.7,3.8,3,5,3c0.8,0,1.1-0.5,1.1-0.8c0-0.3-0.2-0.7-0.8-1.4L160.9,105.3z"/>
				<path class="st11" d="M149.7,113.4c0.2,0.2,0.5,0.2,0.7,0.2c0.6,0,0.9-0.4,0.9-1.1c0-0.2-0.1-0.4-0.2-0.7
					c-0.5,0.5-1.1,0.9-1.6,1.3C149.6,113.2,149.6,113.3,149.7,113.4"/>
				<path class="st11" d="M155.2,111.2l-0.2,0.3c1.8,1.1,3.7,3.3,4.2,5.2c0.3,0.2,0.6,0.3,0.9,0.3c0.6,0,1.1-0.6,1.1-1.4
					C161.3,114.2,159.8,112.1,155.2,111.2"/>
				<path class="st11" d="M146.6,117.8h5.4c2.6,0,3.3-0.4,3.3-1.2c0-0.3-0.1-0.4-1-0.7l0-2.7h-0.2c-0.4,1.3-0.7,2.3-1,2.6
					c-0.2,0.3-0.4,0.3-1.1,0.3h-5.4c-0.9,0-1,0-1-0.3c-0.6,0.4-1.3,0.7-1.9,1.1C144.1,117.7,144.9,117.8,146.6,117.8"/>
				<path class="st11" d="M147.6,108.5c1.3,0,1.9-0.5,1.9-0.6V104c0.5-0.1,0.9-0.3,1.1-0.5l-2.4-1.7l-0.8,1.1h-3.3l-2-0.9v7
					c1.6,0,1.9-0.7,1.9-0.7v-1h3.7V108.5z M144,103.5h3.7v3.3H144V103.5z"/>
				<path class="st11" d="M145.7,112c0.7-0.1,0.8-0.2,0.8-0.5l-2.9-0.2v4.3c0,0.6,0,1,0.2,1.3c0.6-0.3,1.3-0.7,1.9-1.1
					c0-0.1,0-0.1,0-0.2V112z"/>
				<path class="st11" d="M155.9,96.2c0.2,0.2,0.5,0.3,0.7,0.3c0.6,0,1-0.5,1-1c0-0.8-0.9-1.7-3.5-1.7l-0.1,0.3
					C154.8,94.5,155.6,95.4,155.9,96.2"/>
				<path class="st11" d="M150.8,100.2l-2.2-1.6l-1.2,1.5h-6l0.2,0.6h8C150.3,100.7,150.6,100.5,150.8,100.2"/>
				<path class="st11" d="M140.8,111.5c-0.1,1.8-1.7,3.1-3,3.5c-0.5,0.3-0.9,0.7-0.9,1.2c0,0.6,0.5,0.9,1.3,0.9
					c1.6,0,3.3-1.5,3.3-4.1c0-0.5-0.1-0.9-0.2-1.5H140.8z"/>
				<path class="st11" d="M155.6,105.1c1-1.3,1.9-2.8,2.6-4.5c0.7,0.1,0.9-0.1,1.1-0.4l-2.9-1.2c-0.5,1.6-1.1,3-1.9,4.3
					c-0.9-1.8-1.5-3.8-1.8-5.8h7.5c0.7,0,1.1-0.2,1.2-0.5l-2.4-1.7l-1.3,1.6h-5.2c-0.1-0.8-0.2-1.7-0.2-2.5c0.7-0.1,0.9-0.2,1-0.6
					l-3.1-0.3c0,1.2,0.1,2.3,0.2,3.4h-9.1l-2.4-1v4.9c0,3.2-0.2,6.8-2.3,9.8l0.3,0.3c3.7-2.8,4-7,4-10.1v-3.3h9.5
					c0.4,2.9,1.2,5.5,2.7,7.8c-1.4,2-2.9,3.5-4.6,4.6c-0.8-0.2-1.7-0.4-2.8-0.4l-0.1,0.3c1.4,0.7,3,2.1,3.8,3.3
					c0.6-0.4,1.1-0.9,1.6-1.3c-0.2-0.6-0.8-1.1-1.8-1.6c1.8-0.9,3.4-2,4.9-3.5c0.3,0.4,0.6,0.7,1,1.1c0.4-0.5,0.9-1.1,1.3-1.6
					C156.2,105.9,155.9,105.5,155.6,105.1"/>
			</g>
		</g>
	</g>
</g>
</svg>
